<?xml version="1.0" ?><svg width="32px" height="32px" viewBox="0 0 32 32" enable-background="new 0 0 32 32" id="Filled_Line" version="1.1" xml:space="preserve" xmlns="http://www.w3.org/2000/svg" xmlns:xlink="http://www.w3.org/1999/xlink"><path d="M28,10H4V8c0-0.552,0.448-1,1-1h22c0.552,0,1,0.448,1,1V10z" fill="#F9ED69" id="XMLID_885_"/><path d="M8,7H5C4.448,7,4,7.448,4,8v2h3V8C7,7.448,7.448,7,8,7z" fill="#BBB24F" id="XMLID_400_"/><path d="M27,7h-3c0.552,0,1,0.448,1,1v2h3V8C28,7.448,27.552,7,27,7z" fill="#FBF4A5" id="XMLID_401_"/><path d="M25,10H7v17c0,1.105,0.895,2,2,2h14c1.105,0,2-0.895,2-2V10z" fill="#F08A5D" id="XMLID_891_"/><path d="M23,10v17c0,1.105-0.895,2-2,2h2c1.105,0,2-0.895,2-2V10H23z" fill="#F3A17D" id="XMLID_402_"/><path d="M25,12v-2H7v17c0,1.105,0.895,2,2,2V12H25z" fill="#B46846" id="XMLID_403_"/><path d="  M25,10H7v17c0,1.105,0.895,2,2,2h14c1.105,0,2-0.895,2-2V10z" fill="none" id="XMLID_890_" stroke="#200F60" stroke-linecap="round" stroke-linejoin="round" stroke-miterlimit="10" stroke-width="2"/><path d="  M20,7h-8V5c0-1.105,0.895-2,2-2h4c1.105,0,2,0.895,2,2V7z" fill="none" id="XMLID_889_" stroke="#200F60" stroke-linecap="round" stroke-linejoin="round" stroke-miterlimit="10" stroke-width="2"/><path d="  M28,10H4V8c0-0.552,0.448-1,1-1h22c0.552,0,1,0.448,1,1V10z" fill="none" id="XMLID_888_" stroke="#200F60" stroke-linecap="round" stroke-linejoin="round" stroke-miterlimit="10" stroke-width="2"/><path d="M16,25c-0.552,0-1-0.448-1-1v-9c0-0.552,0.448-1,1-1s1,0.448,1,1v9  C17,24.552,16.552,25,16,25z" fill="#4D3F80" id="XMLID_424_"/><path d="M12,25c-0.552,0-1-0.448-1-1v-9c0-0.552,0.448-1,1-1s1,0.448,1,1v9  C13,24.552,12.552,25,12,25z" fill="#4D3F80" id="XMLID_425_"/><path d="M20,25c-0.552,0-1-0.448-1-1v-9c0-0.552,0.448-1,1-1s1,0.448,1,1v9  C21,24.552,20.552,25,20,25z" fill="#4D3F80" id="XMLID_426_"/><path d="M16,14c-0.364,0-0.668,0.204-0.843,0.494c0.118-0.049,0.248-0.078,0.385-0.078  c0.552,0,1,0.448,1,1v9c0,0.189-0.066,0.355-0.157,0.506C16.746,24.772,17,24.416,17,24v-9C17,14.448,16.552,14,16,14z" fill="#200F60" id="XMLID_427_"/><path d="M12,14c-0.364,0-0.668,0.204-0.843,0.494c0.118-0.049,0.248-0.078,0.385-0.078  c0.552,0,1,0.448,1,1v9c0,0.189-0.066,0.355-0.157,0.506C12.746,24.772,13,24.416,13,24v-9C13,14.448,12.552,14,12,14z" fill="#200F60" id="XMLID_428_"/><path d="M20,14c-0.364,0-0.668,0.204-0.843,0.494c0.118-0.049,0.248-0.078,0.385-0.078  c0.552,0,1,0.448,1,1v9c0,0.189-0.066,0.355-0.157,0.506C20.746,24.772,21,24.416,21,24v-9C21,14.448,20.552,14,20,14z" fill="#200F60" id="XMLID_429_"/></svg>